<?xml version="1.0" standalone="no"?>
<!DOCTYPE svg PUBLIC "-//W3C//DTD SVG 20010904//EN"
 "http://www.w3.org/TR/2001/REC-SVG-20010904/DTD/svg10.dtd">
<svg version="1.0" xmlns="http://www.w3.org/2000/svg"
 width="5356.000000pt" height="4500.000000pt" viewBox="0 0 5356.000000 4500.000000"
 preserveAspectRatio="xMidYMid meet">

<g transform="translate(0.000000,4500.000000) scale(0.100000,-0.100000)"
fill="#000000" stroke="none">
<path d="M28620 34539 c-683 -7 -2306 -22 -4330 -39 -674 -6 -1578 -15 -2010
-20 -432 -6 -936 -10 -1122 -10 l-336 0 -26 -31 c-14 -17 -26 -35 -26 -41 0
-10 529 -8 3310 12 1308 9 1468 6 1795 -41 400 -58 790 -169 1037 -295 27 -13
50 -24 53 -24 3 0 16 -7 30 -16 13 -9 30 -12 37 -8 7 4 10 4 6 -1 -8 -8 118
-87 140 -88 6 0 10 -2 7 -5 -7 -8 66 -53 76 -46 5 3 8 1 7 -5 -4 -13 63 -62
75 -54 6 3 7 1 3 -5 -8 -13 33 -44 47 -35 6 3 7 2 4 -3 -8 -13 177 -197 188
-187 4 5 5 3 2 -3 -8 -14 52 -97 68 -94 4 1 10 -2 13 -6 4 -4 1 -4 -5 0 -20
11 -15 -2 15 -48 30 -44 61 -108 93 -189 74 -186 84 -404 30 -647 -50 -225
-81 -373 -86 -400 -3 -14 -14 -63 -25 -110 -22 -96 -131 -591 -185 -841 -19
-90 -53 -247 -75 -349 -64 -292 -111 -513 -114 -535 -2 -11 -6 -27 -9 -35 -4
-8 -15 -60 -26 -115 -11 -55 -32 -149 -45 -210 -29 -128 -156 -730 -160 -760
-2 -11 -6 -27 -9 -35 -3 -8 -21 -91 -41 -185 -19 -93 -47 -224 -61 -290 -14
-66 -50 -235 -80 -375 -30 -140 -66 -309 -80 -375 -15 -66 -28 -131 -30 -145
-1 -14 -5 -32 -8 -40 -3 -8 -26 -114 -52 -235 -26 -121 -82 -389 -126 -595
-44 -206 -93 -438 -109 -516 -16 -78 -32 -153 -36 -168 -5 -20 -3 -26 11 -26
9 0 92 -44 183 -98 185 -110 499 -289 607 -347 39 -21 113 -61 165 -89 52 -29
116 -62 143 -75 26 -14 46 -25 44 -27 -1 -1 -38 4 -81 12 -43 8 -81 13 -84 10
-3 -4 -9 -30 -13 -59 -5 -39 -29 -92 -99 -217 -145 -259 -195 -350 -312 -570
-189 -357 -433 -862 -523 -1085 -20 -49 -45 -110 -57 -135 -11 -25 -29 -67
-39 -95 -9 -27 -34 -90 -54 -140 -63 -159 -75 -190 -75 -204 0 -7 -6 -25 -14
-39 -14 -29 -39 -98 -62 -172 -24 -81 -55 -175 -64 -195 -5 -11 -11 -31 -14
-45 -15 -72 -36 -143 -46 -155 -7 -8 -14 -35 -16 -59 -2 -24 -12 -72 -24 -105
-11 -33 -20 -72 -20 -86 0 -16 -4 -24 -10 -20 -7 4 -8 -3 -4 -21 5 -18 3 -25
-3 -21 -17 11 -24 -21 -11 -48 6 -14 19 -25 29 -25 10 0 24 -9 31 -19 8 -11
26 -23 41 -26 15 -4 36 -20 48 -36 22 -32 39 -38 39 -14 0 21 16 19 32 -4 7
-10 24 -21 38 -25 14 -5 36 -21 50 -37 19 -21 39 -31 80 -39 42 -8 61 -17 80
-40 19 -23 38 -32 80 -40 41 -8 61 -18 80 -39 14 -16 36 -32 50 -37 14 -4 31
-15 38 -25 16 -23 32 -25 32 -4 0 23 11 18 48 -22 l34 -38 14 25 14 25 -4 -30
c-2 -16 -5 -30 -6 -30 -1 0 -3 -16 -5 -35 -14 -130 -38 -298 -166 -1135 -142
-937 -275 -1799 -390 -2528 -23 -147 -39 -271 -35 -274 3 -4 340 30 749 75
969 108 2313 253 3202 347 2697 286 4050 433 4138 451 805 161 1508 1095 1782
2368 44 206 71 376 97 601 20 177 20 250 28 4035 4 2120 11 4164 14 4542 l6
686 -46 26 c-26 14 -48 26 -50 26 -2 0 -4 -550 -5 -1222 -1 -1956 -13 -3144
-33 -3316 -51 -447 -156 -815 -327 -1152 -268 -529 -662 -854 -1118 -921 -50
-7 -135 -9 -214 -6 -117 4 -201 19 -752 130 -2171 440 -3116 631 -3305 671
-118 25 -228 48 -245 50 -127 21 -151 29 -163 54 -16 35 -15 51 3 28 15 -19
15 -19 15 2 0 12 -1 23 -2 25 -1 1 16 20 37 43 22 22 42 49 43 59 2 11 12 25
23 33 25 17 24 32 -1 32 -16 0 -13 6 18 38 20 21 39 47 40 57 2 11 12 25 23
33 10 7 19 22 19 32 0 10 9 25 19 32 13 9 19 25 19 46 -1 23 5 38 20 48 28 19
28 34 1 34 -36 0 -9 20 29 21 33 1 34 2 12 9 -21 7 -18 8 18 9 26 1 41 5 37
11 -8 14 19 13 154 -5 64 -8 267 -33 451 -55 610 -74 2589 -319 3380 -420 261
-33 483 -59 493 -56 9 2 17 0 17 -5 0 -5 9 -9 20 -9 11 0 20 3 20 8 0 9 -70
530 -110 822 -16 118 -46 334 -65 480 -20 146 -67 499 -106 785 -122 911 -197
1472 -280 2105 -22 168 -60 449 -84 625 -24 176 -74 543 -110 815 -36 272 -68
502 -70 510 -3 8 -7 46 -11 85 -3 38 -10 77 -15 86 -4 9 -6 19 -3 21 4 4 -36
311 -130 1004 -14 100 -32 210 -41 244 -18 69 -55 172 -64 180 -3 3 -7 11 -9
19 -18 81 -228 391 -254 374 -7 -3 -8 -1 -4 5 8 13 -61 92 -77 89 -7 -1 -11 3
-10 10 3 13 -105 109 -118 106 -5 -2 -8 1 -6 5 4 16 -175 156 -187 145 -3 -3
-6 -1 -6 5 0 13 -120 97 -120 85 0 -4 -4 -3 -8 3 -14 22 -425 246 -447 244 -3
0 -19 7 -35 15 -58 30 -306 123 -450 168 -313 99 -550 155 -875 207 -521 83
-764 90 -2575 69z m-1109 -836 c13 -16 12 -17 -3 -4 -17 13 -22 21 -14 21 2 0
10 -8 17 -17z m5799 -117 c0 -2 -8 -10 -17 -17 -16 -13 -17 -12 -4 4 13 16 21
21 21 13z m-3383 -8388 c-3 -8 -6 -5 -6 6 -1 11 2 17 5 13 3 -3 4 -12 1 -19z
m-3942 -2988 c3 -5 1 -10 -4 -10 -6 0 -11 5 -11 10 0 6 2 10 4 10 3 0 8 -4 11
-10z m829 -434 c-3 -15 -8 -25 -11 -23 -2 3 -1 17 3 31 3 15 8 25 11 23 2 -3
1 -17 -3 -31z"/>
<path d="M21655 26310 c3 -5 -1 -10 -9 -10 -9 0 -16 -5 -16 -10 0 -7 6 -7 19
0 27 14 58 13 58 -2 0 -7 7 -156 14 -330 9 -236 16 -318 25 -318 8 0 15 -29
19 -85 7 -81 9 -85 31 -85 13 0 24 -4 24 -9 0 -9 -49 -3 -65 9 -5 3 -28 6 -50
4 -22 -1 -166 13 -320 32 -154 19 -485 59 -735 89 -250 31 -941 116 -1534 190
-594 74 -1081 133 -1084 130 -5 -5 40 -350 178 -1360 142 -1044 251 -1854 270
-1995 99 -752 153 -1162 165 -1250 18 -123 101 -734 151 -1105 33 -249 86
-639 139 -1035 14 -102 30 -214 35 -250 5 -36 23 -168 41 -294 17 -126 39
-261 49 -302 60 -232 195 -457 398 -662 125 -125 223 -205 392 -317 614 -409
1480 -670 2480 -746 157 -12 1394 -15 1630 -4 63 3 657 10 1320 15 1516 12
3231 28 3720 35 445 6 1332 13 2360 20 l745 5 29 42 29 41 -1019 -6 c-2710
-18 -3639 -20 -3784 -8 -819 67 -1488 312 -1897 694 -73 68 -170 190 -226 282
-138 228 -175 486 -113 780 157 744 575 2683 741 3440 33 150 62 289 354 1675
105 498 208 984 229 1080 22 96 38 176 37 178 -1 1 -407 52 -901 112 -1047
128 -1067 130 -1999 249 -390 50 -723 94 -739 98 -15 5 97 8 250 7 379 0 769
19 1134 56 536 55 1285 158 1269 175 -5 4 -45 12 -1314 264 -555 110 -1217
241 -1470 291 -839 167 -1010 199 -1053 200 -7 0 -10 -4 -7 -10z m1150 -970
c-3 -5 -14 -10 -23 -9 -14 0 -13 2 3 9 27 11 27 11 20 0z"/>
<path d="M30298 25723 c7 -3 16 -2 19 1 4 3 -2 6 -13 5 -11 0 -14 -3 -6 -6z"/>
<path d="M38260 14127 c-24 -8 -219 -11 -607 -12 -436 0 -575 -3 -584 -12 -16
-16 -4 -20 85 -27 83 -7 125 -29 151 -81 20 -39 20 -60 20 -900 0 -689 -3
-870 -13 -912 -19 -71 -52 -98 -132 -107 -41 -5 -60 -11 -57 -19 3 -9 70 -12
258 -12 140 0 407 -4 595 -9 337 -9 341 -9 362 12 21 21 36 78 52 202 14 112
13 160 -5 160 -8 0 -19 -17 -25 -42 -19 -74 -29 -102 -50 -136 -40 -66 -155
-93 -385 -93 -219 1 -292 28 -325 119 -19 52 -26 807 -8 829 11 13 44 14 233
9 320 -10 356 -25 378 -150 13 -80 37 -91 38 -18 0 56 6 106 25 229 22 141 20
145 -41 92 -32 -28 -45 -33 -123 -40 -92 -8 -276 -12 -429 -10 l-93 1 0 404
c0 314 3 405 13 408 6 2 118 1 247 -3 260 -7 316 -18 364 -68 22 -23 29 -41
33 -90 5 -58 24 -94 37 -72 3 5 13 69 21 143 8 73 19 148 25 167 15 53 6 59
-60 38z"/>
<path d="M28942 14103 c-11 -16 -28 -53 -40 -83 -11 -30 -129 -332 -262 -670
-132 -338 -281 -717 -330 -841 -104 -267 -135 -331 -187 -383 -49 -51 -102
-73 -186 -79 -73 -5 -87 -11 -70 -28 14 -14 653 -13 667 1 15 15 3 21 -55 25
-74 7 -103 30 -107 86 -5 61 6 99 120 411 l100 276 92 4 c50 3 202 5 337 6
200 2 249 -1 258 -12 23 -27 301 -691 301 -718 0 -17 -8 -31 -20 -38 -11 -6
-20 -17 -20 -25 0 -12 23 -15 133 -15 72 0 200 -3 283 -6 105 -4 158 -3 173 5
33 18 25 31 -21 31 -23 0 -69 8 -102 17 -50 14 -71 27 -117 72 -30 31 -72 85
-92 121 -53 95 -395 890 -697 1620 -112 271 -118 279 -158 223z m141 -770 c81
-208 147 -386 147 -395 0 -17 -21 -18 -299 -18 l-300 0 34 98 c63 186 236 675
241 684 3 4 11 8 17 8 7 0 78 -168 160 -377z"/>
<path d="M19475 14093 c-134 -14 -322 -66 -430 -120 -320 -161 -545 -476 -596
-832 -42 -301 78 -658 296 -877 226 -228 531 -336 908 -321 157 6 208 14 347
58 l95 30 325 -164 c371 -187 509 -247 736 -323 366 -121 669 -149 1046 -94
152 23 294 57 446 110 114 39 162 63 162 80 0 15 -31 12 -96 -11 -96 -33 -244
-68 -355 -84 -337 -48 -790 30 -1259 217 -120 48 -797 362 -813 377 -4 4 16
24 45 43 166 112 320 306 399 503 92 231 95 530 8 755 -100 260 -309 462 -591
570 -182 70 -459 104 -673 83z m350 -113 c260 -66 477 -248 591 -495 81 -174
116 -405 96 -623 -15 -164 -41 -263 -102 -389 -102 -209 -294 -354 -542 -409
-109 -25 -299 -22 -412 5 -330 79 -579 326 -680 672 -35 121 -48 226 -48 369
1 491 258 811 710 885 113 19 282 12 387 -15z"/>
<path d="M32572 14082 c3 -13 18 -18 73 -23 87 -7 127 -27 151 -76 18 -35 19
-78 25 -598 7 -589 -3 -1164 -21 -1227 -19 -65 -46 -87 -118 -95 -61 -6 -86
-18 -64 -32 15 -9 729 -7 738 2 17 17 -19 30 -98 34 -136 8 -163 34 -178 176
-15 142 -22 637 -9 653 9 11 51 14 199 14 104 0 195 -3 204 -6 14 -5 43 -39
184 -216 152 -193 352 -429 409 -485 70 -68 151 -121 228 -149 42 -15 90 -19
289 -22 160 -2 242 0 249 7 16 16 6 20 -69 27 -224 19 -333 86 -586 362 -173
188 -461 517 -466 533 -2 6 37 52 87 104 175 181 251 341 251 530 0 241 -141
409 -401 477 -80 20 -108 22 -582 24 -466 3 -498 2 -495 -14z m895 -93 c212
-65 343 -262 343 -519 0 -247 -115 -428 -299 -470 -105 -25 -391 3 -438 42
-20 16 -18 917 1 944 27 37 276 39 393 3z"/>
<path d="M15145 14073 c-281 -39 -466 -213 -482 -453 -17 -245 99 -416 462
-685 192 -143 330 -276 367 -355 58 -123 58 -246 0 -353 -30 -56 -103 -127
-160 -156 -96 -49 -239 -63 -367 -36 -99 21 -166 57 -224 120 -55 61 -81 124
-90 219 -6 59 -24 84 -35 49 -12 -39 -15 -84 -18 -235 -3 -132 -1 -160 13
-173 25 -25 150 -64 261 -81 280 -43 560 29 714 183 165 166 208 421 105 628
-73 146 -172 244 -456 447 -203 145 -313 250 -352 334 -22 48 -27 74 -28 139
0 68 4 89 28 137 46 94 136 155 263 179 74 14 193 5 276 -21 127 -39 186 -100
208 -215 12 -64 24 -85 40 -69 4 5 10 88 14 185 l6 175 -83 12 c-45 7 -104 17
-132 22 -49 9 -272 11 -330 3z"/>
<path d="M24949 14070 c-23 -15 2 -27 65 -32 81 -7 135 -33 161 -78 19 -34 20
-53 23 -615 4 -717 -2 -787 -87 -960 -69 -140 -187 -238 -348 -291 -81 -27
-99 -29 -228 -28 -122 1 -150 4 -218 26 -249 83 -387 276 -426 597 -14 112
-15 1186 -2 1244 16 66 50 90 144 101 36 5 57 12 57 20 0 11 -75 13 -365 14
-308 1 -365 -2 -365 -13 0 -17 21 -22 102 -28 70 -4 121 -39 139 -95 9 -27 13
-178 15 -547 4 -740 9 -797 75 -964 123 -307 393 -462 807 -461 195 1 314 25
457 96 256 126 383 325 425 664 5 47 11 334 13 650 2 548 3 566 22 600 26 44
77 70 138 70 41 0 48 3 45 18 -3 16 -27 17 -320 18 -174 1 -322 -2 -329 -6z"/>
</g>
</svg>
